<svg width="32" height="32" viewBox="0 0 32 32" fill="none" xmlns="http://www.w3.org/2000/svg">
  <!-- Background -->
  <rect width="32" height="32" fill="url(#bgGradient)"/>
  
  <!-- Define gradients -->
  <defs>
    <linearGradient id="bgGradient" x1="0" y1="0" x2="32" y2="32">
      <stop offset="0%" style="stop-color:#1a1a2e;stop-opacity:1" />
      <stop offset="100%" style="stop-color:#0f3460;stop-opacity:1" />
    </linearGradient>
    <linearGradient id="treeGradient" x1="0" y1="0" x2="0" y2="32">
      <stop offset="0%" style="stop-color:#22d3ee;stop-opacity:1" />
      <stop offset="100%" style="stop-color:#3b82f6;stop-opacity:1" />
    </linearGradient>
  </defs>
  
  <!-- Tree trunk -->
  <line x1="16" y1="24" x2="16" y2="32" stroke="url(#treeGradient)" stroke-width="1.5" stroke-linecap="round"/>
  
  <!-- Root branches -->
  <line x1="16" y1="24" x2="10" y2="28" stroke="url(#treeGradient)" stroke-width="1.5" stroke-linecap="round" opacity="0.8"/>
  <line x1="16" y1="24" x2="22" y2="28" stroke="url(#treeGradient)" stroke-width="1.5" stroke-linecap="round" opacity="0.8"/>
  
  <!-- Middle branches -->
  <line x1="16" y1="18" x2="10" y2="14" stroke="url(#treeGradient)" stroke-width="1.5" stroke-linecap="round"/>
  <line x1="16" y1="18" x2="22" y2="14" stroke="url(#treeGradient)" stroke-width="1.5" stroke-linecap="round"/>
  
  <!-- Top branches -->
  <line x1="10" y1="14" x2="7" y2="8" stroke="url(#treeGradient)" stroke-width="1" stroke-linecap="round" opacity="0.9"/>
  <line x1="10" y1="14" x2="13" y2="8" stroke="url(#treeGradient)" stroke-width="1" stroke-linecap="round" opacity="0.9"/>
  <line x1="22" y1="14" x2="19" y2="8" stroke="url(#treeGradient)" stroke-width="1" stroke-linecap="round" opacity="0.9"/>
  <line x1="22" y1="14" x2="25" y2="8" stroke="url(#treeGradient)" stroke-width="1" stroke-linecap="round" opacity="0.9"/>
  
  <!-- Family nodes (circles) -->
  <!-- Root node -->
  <circle cx="16" cy="20" r="2" fill="#22d3ee" opacity="0.9"/>
  
  <!-- Second generation -->
  <circle cx="10" cy="14" r="1.5" fill="#3b82f6" opacity="0.8"/>
  <circle cx="22" cy="14" r="1.5" fill="#3b82f6" opacity="0.8"/>
  
  <!-- Third generation -->
  <circle cx="7" cy="8" r="1.2" fill="#06b6d4" opacity="0.7"/>
  <circle cx="13" cy="8" r="1.2" fill="#06b6d4" opacity="0.7"/>
  <circle cx="19" cy="8" r="1.2" fill="#06b6d4" opacity="0.7"/>
  <circle cx="25" cy="8" r="1.2" fill="#06b6d4" opacity="0.7"/>
</svg>